<svg width="30" height="13" viewBox="0 0 30 13" fill="none" xmlns="http://www.w3.org/2000/svg">
<path d="M26.7791 7.6923L27.0211 7.18896C26.6934 7.5063 26.3004 7.6923 25.8771 7.6923C25.4541 7.6923 25.0614 7.5063 24.7331 7.18896L24.9754 7.6923C24.8944 7.55897 24.5897 7.52297 24.2321 7.53164C24.2891 7.87431 24.6924 8.16164 25.2481 8.28798L25.8774 9.31099L26.5071 8.28798C27.0631 8.16164 27.4658 7.87464 27.5228 7.53164C27.1651 7.52297 26.8601 7.55864 26.7791 7.6923Z" fill="#A1A1AA"/>
<path d="M17.3115 7.29248C17.2971 7.94782 16.3255 8.47683 15.1291 8.47683C13.9324 8.47683 12.9614 7.94782 12.9471 7.29248C11.1167 7.45982 9.68304 8.99817 9.68304 10.8722C9.68304 12.8579 11.2927 12.8525 13.2781 12.8525H16.9801C18.9658 12.8525 20.5755 12.8579 20.5755 10.8722C20.5758 8.99817 19.1421 7.45982 17.3115 7.29248Z" fill="#A1A1AA"/>
<path d="M15.1291 7.17918C13.9148 7.17918 12.9111 5.86283 12.7497 4.15381H12.4197C12.6031 6.10016 13.7461 7.59985 15.1291 7.59985C16.5121 7.59985 17.6551 6.10016 17.8388 4.15381H17.5081C17.3468 5.86283 16.3434 7.17918 15.1291 7.17918Z" fill="#A1A1AA"/>
<path d="M12.2908 3.74904H17.9675C18.1888 3.74904 18.3678 3.56971 18.3678 3.3487C18.3678 3.12737 18.1888 2.94837 17.9675 2.94837H17.8588C17.8588 1.88469 17.2495 0.963678 16.3618 0.513339L16.1355 1.79569C16.1175 1.89735 16.0295 1.96869 15.9295 1.96869C15.9178 1.96869 15.9055 1.96769 15.8932 1.96569C15.7795 1.94569 15.7038 1.83702 15.7235 1.72335L15.9818 0.258003C15.8848 0.103001 15.7128 0 15.5165 0H14.7418C14.5458 0 14.3738 0.103335 14.2768 0.258003L14.5351 1.72335C14.5551 1.83702 14.4795 1.94569 14.3655 1.96569C14.3531 1.96769 14.3408 1.96869 14.3288 1.96869C14.2291 1.96869 14.1408 1.89735 14.1231 1.79569L13.8968 0.513672C13.0085 0.964011 12.3998 1.88469 12.3998 2.9487H12.2908C12.0694 2.9487 11.8904 3.12804 11.8904 3.34904C11.8904 3.56971 12.0694 3.74904 12.2908 3.74904Z" fill="#A1A1AA"/>
<path d="M5.9334 7.1001C5.9224 7.60977 5.16672 8.02144 4.23638 8.02144C3.3057 8.02144 2.55003 7.6101 2.53936 7.1001C1.11535 7.2301 0 8.42711 0 9.88446C0 11.4288 1.25201 11.4248 2.79636 11.4248H5.67606C7.22041 11.4248 8.47243 11.4288 8.47243 9.88446C8.47243 8.42711 7.35741 7.2301 5.9334 7.1001Z" fill="#A1A1AA"/>
<path d="M4.23596 7.01172C3.29128 7.01172 2.51061 5.98804 2.38527 4.65869H2.1286C2.27127 6.17237 3.15995 7.33905 4.23596 7.33905C5.31164 7.33905 6.20065 6.17237 6.34331 4.65869H6.08631C5.96098 5.98804 5.18063 7.01172 4.23596 7.01172Z" fill="#A1A1AA"/>
<path d="M2.02845 4.34361H6.44383C6.61617 4.34361 6.7555 4.20428 6.7555 4.03228C6.7555 3.86027 6.61617 3.72061 6.44383 3.72061H6.35917C6.35917 2.89326 5.88549 2.17692 5.19482 1.82692L5.01915 2.82426C5.00515 2.90326 4.93648 2.9586 4.85915 2.9586C4.84982 2.9586 4.84048 2.95793 4.83082 2.95626C4.74215 2.9406 4.68348 2.85626 4.69881 2.76759L4.89982 1.62825C4.82448 1.50758 4.69081 1.42725 4.53815 1.42725H3.93547C3.7828 1.42725 3.64947 1.50725 3.5738 1.62825L3.7748 2.76759C3.79047 2.85626 3.73147 2.9406 3.6428 2.95626C3.63314 2.95793 3.6238 2.9586 3.61447 2.9586C3.5368 2.9586 3.46813 2.90326 3.45447 2.82426L3.2788 1.82725C2.58779 2.17725 2.11412 2.8936 2.11412 3.72094H2.02945C1.85745 3.72094 1.71811 3.86027 1.71811 4.03261C1.71711 4.20428 1.85645 4.34361 2.02845 4.34361Z" fill="#A1A1AA"/>
<path d="M28.0972 7.57372C28.5639 7.62606 28.9739 7.70639 28.9739 7.70639C28.0422 7.19439 28.0659 5.35503 28.0659 5.35503C28.0776 5.10403 28.0752 4.87369 28.0636 4.65869H27.6949C27.6946 4.68403 27.6942 4.70869 27.6936 4.73236C27.6909 4.87736 27.6879 4.98536 27.6846 5.0097C27.6492 5.48103 27.5292 5.91537 27.3476 6.27971C27.0169 6.94238 26.4816 7.37306 25.8769 7.37306C25.2725 7.37306 24.7375 6.94238 24.4069 6.27971C24.2249 5.91537 24.1052 5.48103 24.0695 5.0097C24.0659 4.98536 24.0632 4.87736 24.0605 4.73236C24.0602 4.70869 24.0599 4.68403 24.0595 4.65869H23.6902C23.6785 4.87369 23.6762 5.10403 23.6879 5.35503C23.6879 5.35503 23.7119 7.19439 22.7799 7.70639C22.7799 7.70639 23.1895 7.62606 23.6565 7.57372C22.5535 7.92106 21.7535 8.95174 21.7532 10.1691C21.7532 11.6724 22.9719 11.4068 24.4752 11.4068H25.8766H27.2782C28.7816 11.4068 29.9999 11.6724 29.9999 10.1691C30.0003 8.95174 29.2003 7.92106 28.0972 7.57372ZM26.5066 8.2874L25.8769 9.31041L25.2475 8.2874C24.6919 8.16106 24.2885 7.87406 24.2315 7.53106C24.5892 7.52272 24.8939 7.55839 24.9749 7.69173L24.7325 7.18839C25.0605 7.50572 25.4535 7.69173 25.8766 7.69173C26.2999 7.69173 26.6926 7.50572 27.0206 7.18839L26.7786 7.69173C26.8596 7.55839 27.1646 7.52239 27.5216 7.53106C27.4652 7.87406 27.0626 8.16106 26.5066 8.2874Z" fill="#A1A1AA"/>
<path d="M23.6697 4.34425H23.717H24.0557H24.3597H27.395H27.699H28.0377H28.085C28.257 4.34425 28.3967 4.20492 28.3967 4.03292C28.3967 3.86058 28.257 3.72125 28.085 3.72125H28C28 2.8939 27.5264 2.17756 26.836 1.82723L26.7734 2.17956L26.6597 2.8249C26.6457 2.90391 26.5773 2.95957 26.4997 2.95957C26.4907 2.95957 26.481 2.95857 26.4713 2.95691C26.4673 2.95657 26.4637 2.95457 26.4597 2.95391C26.3783 2.93291 26.3247 2.85324 26.3397 2.76857L26.3417 2.75724L26.4647 2.05956L26.5407 1.62923C26.465 1.50822 26.3317 1.42822 26.1787 1.42822H25.576C25.4237 1.42822 25.2903 1.50822 25.2147 1.62923L25.2907 2.05956L25.4137 2.75724L25.4157 2.76857C25.4303 2.85324 25.377 2.93324 25.2953 2.95391C25.2913 2.95457 25.288 2.95657 25.2837 2.95691C25.2743 2.95857 25.2647 2.95957 25.2553 2.95957C25.178 2.95957 25.1093 2.90391 25.0953 2.8249L24.9817 2.17956L24.9193 1.82756C24.2287 2.17756 23.755 2.8939 23.755 3.72125H23.6703C23.498 3.72125 23.3586 3.86058 23.3586 4.03292C23.358 4.20459 23.4973 4.34425 23.6697 4.34425Z" fill="#A1A1AA"/>
</svg>
