<svg width="30" height="26" viewBox="0 0 30 26" fill="none" xmlns="http://www.w3.org/2000/svg">
<path fill-rule="evenodd" clip-rule="evenodd" d="M27.3913 20.15H18.388C18.7761 22.2956 20.0661 23.7718 21.2583 24.7H22.8261C23.1867 24.7 23.4783 24.9905 23.4783 25.35C23.4783 25.7094 23.1867 26 22.8261 26H7.17391C6.81326 26 6.52174 25.7094 6.52174 25.35C6.52174 24.9905 6.81326 24.7 7.17391 24.7H8.74109C9.93261 23.7718 11.2239 22.2956 11.6113 20.15H2.6087C1.16804 20.15 0 18.9858 0 17.55V2.6C0 1.16415 1.16804 0 2.6087 0H27.3913C28.832 0 30 1.16415 30 2.6V17.55C30 18.9858 28.832 20.15 27.3913 20.15ZM10.6937 24.7H19.3057C18.2654 23.6067 17.3393 22.1156 17.0498 20.15H12.9496C12.66 22.1156 11.7339 23.6067 10.6937 24.7ZM28.6957 2.6C28.6957 1.8824 28.1113 1.3 27.3913 1.3H2.6087C1.8887 1.3 1.30435 1.8824 1.30435 2.6V14.95H28.6957V2.6ZM28.6957 16.25H1.30435V17.55C1.30435 18.2676 1.8887 18.85 2.6087 18.85H11.7391H18.2609H27.3913C28.1113 18.85 28.6957 18.2676 28.6957 17.55V16.25ZM15 18.2C14.6393 18.2 14.3478 17.9094 14.3478 17.55C14.3478 17.1905 14.6393 16.9 15 16.9C15.3607 16.9 15.6522 17.1905 15.6522 17.55C15.6522 17.9094 15.3607 18.2 15 18.2Z" fill="#A1A1AA"/>
<path d="M11.5207 13.9997H9.22916C9.10266 13.9997 9 13.897 9 13.7705V12.8539C9 12.7274 9.10266 12.6248 9.22916 12.6248H11.5207C11.6472 12.6248 11.7499 12.7274 11.7499 12.8539V13.7705C11.7499 13.897 11.6472 13.9997 11.5207 13.9997ZM9.45831 13.5414H11.2916V13.0831H9.45831V13.5414Z" fill="#A1A1AA"/>
<path d="M19.7712 13.9997H15.6464C15.5199 13.9997 15.4172 13.897 15.4172 13.7705V12.8539C15.4172 12.7274 15.5199 12.6248 15.6464 12.6248H19.7712C19.8977 12.6248 20.0004 12.7274 20.0004 12.8539V13.7705C20.0004 13.897 19.8977 13.9997 19.7712 13.9997ZM15.8756 13.5414H19.5421V13.0831H15.8756V13.5414Z" fill="#A1A1AA"/>
<path d="M11.5215 13.9997C11.395 13.9997 11.2923 13.897 11.2923 13.7705V8.72904C11.2923 8.60254 11.395 8.49988 11.5215 8.49988C11.6479 8.49988 11.7506 8.60254 11.7506 8.72904V13.7705C11.7506 13.897 11.6479 13.9997 11.5215 13.9997Z" fill="#A1A1AA"/>
<path d="M11.9798 8.9834C11.9715 8.9834 11.9628 8.98294 11.9546 8.98202C11.812 8.96644 11.6677 8.95819 11.5215 8.95819C11.395 8.95819 11.2923 8.85553 11.2923 8.72904C11.2923 8.60254 11.395 8.49988 11.5215 8.49988C11.6846 8.49988 11.8459 8.50904 12.0045 8.52646C12.1301 8.54021 12.2213 8.65341 12.2071 8.77945C12.1943 8.89632 12.0948 8.9834 11.9798 8.9834Z" fill="#A1A1AA"/>
<path d="M15.4571 11.8476C15.3595 11.8476 15.2692 11.7848 15.2385 11.6867C15.1638 11.4489 15.0657 11.2174 14.9461 10.9974C14.8856 10.8861 14.9268 10.7472 15.0382 10.6867C15.1491 10.6267 15.2884 10.6675 15.3489 10.7788C15.4828 11.0245 15.5923 11.2843 15.6757 11.5502C15.7138 11.6712 15.6464 11.7995 15.5254 11.8371C15.5029 11.8444 15.48 11.8476 15.4571 11.8476ZM14.7046 10.4603C14.6381 10.4603 14.5726 10.4319 14.5276 10.3769C14.3691 10.1849 14.1908 10.0061 13.9974 9.84707C13.8998 9.76641 13.886 9.62204 13.9667 9.52442C14.0464 9.42726 14.1917 9.41259 14.2893 9.49371C14.5052 9.67154 14.7041 9.87091 14.8815 10.0859C14.9621 10.1835 14.9484 10.3278 14.8503 10.4085C14.8072 10.4433 14.7559 10.4603 14.7046 10.4603ZM13.4854 9.45567C13.4483 9.45567 13.4112 9.44651 13.3764 9.42772C13.1564 9.30855 12.9245 9.21002 12.6866 9.13577C12.5656 9.09773 12.4987 8.9694 12.5363 8.84886C12.5739 8.72787 12.7017 8.66004 12.8232 8.69854C13.089 8.78195 13.3484 8.89149 13.5945 9.02486C13.7059 9.08536 13.7471 9.22422 13.6866 9.3356C13.6458 9.41213 13.5666 9.45567 13.4854 9.45567Z" fill="#A1A1AA"/>
<path d="M15.6461 13.0833C15.5196 13.0833 15.4169 12.9807 15.4169 12.8542C15.4169 12.708 15.4087 12.5636 15.3931 12.4215C15.3794 12.2959 15.4701 12.1827 15.5957 12.1685C15.7231 12.1539 15.8345 12.2455 15.8487 12.3711C15.8661 12.5297 15.8752 12.691 15.8752 12.8542C15.8752 12.9807 15.7726 13.0833 15.6461 13.0833Z" fill="#A1A1AA"/>
<path d="M10.6041 13.9997C10.4776 13.9997 10.3749 13.897 10.3749 13.7705V12.8539C10.3749 12.7274 10.4776 12.6248 10.6041 12.6248C10.7306 12.6248 10.8333 12.7274 10.8333 12.8539V13.7705C10.8333 13.897 10.7306 13.9997 10.6041 13.9997Z" fill="#A1A1AA"/>
<path d="M16.5616 13.9997C16.4351 13.9997 16.3325 13.897 16.3325 13.7705V12.8539C16.3325 12.7274 16.4351 12.6248 16.5616 12.6248C16.6881 12.6248 16.7908 12.7274 16.7908 12.8539V13.7705C16.7908 13.897 16.6881 13.9997 16.5616 13.9997Z" fill="#A1A1AA"/>
<path d="M17.9366 6.66657H17.0199C16.6409 6.66657 16.3325 6.35813 16.3325 5.9791V5.06247C16.3325 4.68345 16.6409 4.375 17.0199 4.375H17.9366C18.3156 4.375 18.624 4.68345 18.624 5.06247V5.9791C18.624 6.35813 18.3156 6.66657 17.9366 6.66657ZM17.0199 4.83331C16.8934 4.83331 16.7908 4.93598 16.7908 5.06247V5.9791C16.7908 6.1056 16.8934 6.20826 17.0199 6.20826H17.9366C18.0631 6.20826 18.1657 6.1056 18.1657 5.9791V5.06247C18.1657 4.93598 18.0631 4.83331 17.9366 4.83331H17.0199Z" fill="#A1A1AA"/>
<path d="M17.479 13.0833C17.3525 13.0833 17.2498 12.9807 17.2498 12.8542V6.43778C17.2498 6.31128 17.3525 6.20862 17.479 6.20862C17.6055 6.20862 17.7081 6.31128 17.7081 6.43778V12.8542C17.7081 12.9807 17.6055 13.0833 17.479 13.0833Z" fill="#A1A1AA"/>
<path d="M16.5622 5.74957H9.22916C9.10266 5.74957 9 5.64691 9 5.52042C9 5.39392 9.10266 5.29126 9.22916 5.29126H16.5622C16.6887 5.29126 16.7914 5.39392 16.7914 5.52042C16.7914 5.64691 16.6887 5.74957 16.5622 5.74957Z" fill="#A1A1AA"/>
<path d="M17.479 4.83326C17.3525 4.83326 17.2498 4.7306 17.2498 4.6041V3.22916C17.2498 3.10266 17.3525 3 17.479 3C17.6055 3 17.7081 3.10266 17.7081 3.22916V4.6041C17.7081 4.7306 17.6055 4.83326 17.479 4.83326Z" fill="#A1A1AA"/>
<path d="M19.7713 5.74957H18.3963C18.2698 5.74957 18.1672 5.64691 18.1672 5.52042C18.1672 5.39392 18.2698 5.29126 18.3963 5.29126H19.7713C19.8978 5.29126 20.0004 5.39392 20.0004 5.52042C20.0004 5.64691 19.8978 5.74957 19.7713 5.74957Z" fill="#A1A1AA"/>
</svg>
