<svg width="50" height="50" viewBox="0 0 50 50" fill="none" xmlns="http://www.w3.org/2000/svg">
<circle opacity="0.75" cx="25" cy="25" r="25" fill="#E4E4E7"/>
<path d="M36.7791 26.6923L37.0211 26.189C36.6934 26.5063 36.3004 26.6923 35.8771 26.6923C35.4541 26.6923 35.0614 26.5063 34.7331 26.189L34.9754 26.6923C34.8944 26.559 34.5897 26.523 34.2321 26.5316C34.2891 26.8743 34.6924 27.1616 35.2481 27.288L35.8774 28.311L36.5071 27.288C37.0631 27.1616 37.4658 26.8746 37.5228 26.5316C37.1651 26.523 36.8601 26.5586 36.7791 26.6923Z" fill="#A1A1AA"/>
<path d="M27.3115 26.2925C27.2971 26.9478 26.3255 27.4768 25.1291 27.4768C23.9324 27.4768 22.9614 26.9478 22.9471 26.2925C21.1167 26.4598 19.683 27.9982 19.683 29.8722C19.683 31.8579 21.2927 31.8525 23.2781 31.8525H26.9801C28.9658 31.8525 30.5755 31.8579 30.5755 29.8722C30.5758 27.9982 29.1421 26.4598 27.3115 26.2925Z" fill="#A1A1AA"/>
<path d="M25.1291 26.1792C23.9148 26.1792 22.9111 24.8628 22.7497 23.1538H22.4197C22.6031 25.1002 23.7461 26.5998 25.1291 26.5998C26.5121 26.5998 27.6551 25.1002 27.8388 23.1538H27.5081C27.3468 24.8628 26.3434 26.1792 25.1291 26.1792Z" fill="#A1A1AA"/>
<path d="M22.2908 22.749H27.9675C28.1888 22.749 28.3678 22.5697 28.3678 22.3487C28.3678 22.1274 28.1888 21.9484 27.9675 21.9484H27.8588C27.8588 20.8847 27.2495 19.9637 26.3618 19.5133L26.1355 20.7957C26.1175 20.8974 26.0295 20.9687 25.9295 20.9687C25.9178 20.9687 25.9055 20.9677 25.8932 20.9657C25.7795 20.9457 25.7038 20.837 25.7235 20.7234L25.9818 19.258C25.8848 19.103 25.7128 19 25.5165 19H24.7418C24.5458 19 24.3738 19.1033 24.2768 19.258L24.5351 20.7234C24.5551 20.837 24.4795 20.9457 24.3655 20.9657C24.3531 20.9677 24.3408 20.9687 24.3288 20.9687C24.2291 20.9687 24.1408 20.8974 24.1231 20.7957L23.8968 19.5137C23.0085 19.964 22.3998 20.8847 22.3998 21.9487H22.2908C22.0694 21.9487 21.8904 22.128 21.8904 22.349C21.8904 22.5697 22.0694 22.749 22.2908 22.749Z" fill="#A1A1AA"/>
<path d="M15.9334 26.1001C15.9224 26.6098 15.1667 27.0214 14.2364 27.0214C13.3057 27.0214 12.55 26.6101 12.5394 26.1001C11.1153 26.2301 10 27.4271 10 28.8845C10 30.4288 11.252 30.4248 12.7964 30.4248H15.6761C17.2204 30.4248 18.4724 30.4288 18.4724 28.8845C18.4724 27.4271 17.3574 26.2301 15.9334 26.1001Z" fill="#A1A1AA"/>
<path d="M14.236 26.0117C13.2913 26.0117 12.5106 24.988 12.3853 23.6587H12.1286C12.2713 25.1724 13.1599 26.3391 14.236 26.3391C15.3116 26.3391 16.2006 25.1724 16.3433 23.6587H16.0863C15.961 24.988 15.1806 26.0117 14.236 26.0117Z" fill="#A1A1AA"/>
<path d="M12.0285 23.3436H16.4438C16.6162 23.3436 16.7555 23.2043 16.7555 23.0323C16.7555 22.8603 16.6162 22.7206 16.4438 22.7206H16.3592C16.3592 21.8933 15.8855 21.1769 15.1948 20.8269L15.0192 21.8243C15.0052 21.9033 14.9365 21.9586 14.8591 21.9586C14.8498 21.9586 14.8405 21.9579 14.8308 21.9563C14.7421 21.9406 14.6835 21.8563 14.6988 21.7676L14.8998 20.6282C14.8245 20.5076 14.6908 20.4272 14.5381 20.4272H13.9355C13.7828 20.4272 13.6495 20.5072 13.5738 20.6282L13.7748 21.7676C13.7905 21.8563 13.7315 21.9406 13.6428 21.9563C13.6331 21.9579 13.6238 21.9586 13.6145 21.9586C13.5368 21.9586 13.4681 21.9033 13.4545 21.8243L13.2788 20.8273C12.5878 21.1773 12.1141 21.8936 12.1141 22.7209H12.0295C11.8574 22.7209 11.7181 22.8603 11.7181 23.0326C11.7171 23.2043 11.8564 23.3436 12.0285 23.3436Z" fill="#A1A1AA"/>
<path d="M38.0972 26.5737C38.5639 26.6261 38.9739 26.7064 38.9739 26.7064C38.0422 26.1944 38.0659 24.355 38.0659 24.355C38.0776 24.104 38.0752 23.8737 38.0636 23.6587H37.6949C37.6946 23.684 37.6942 23.7087 37.6936 23.7324C37.6909 23.8774 37.6879 23.9854 37.6846 24.0097C37.6492 24.481 37.5292 24.9154 37.3476 25.2797C37.0169 25.9424 36.4816 26.3731 35.8769 26.3731C35.2725 26.3731 34.7375 25.9424 34.4069 25.2797C34.2249 24.9154 34.1052 24.481 34.0695 24.0097C34.0659 23.9854 34.0632 23.8774 34.0605 23.7324C34.0602 23.7087 34.0599 23.684 34.0595 23.6587H33.6902C33.6785 23.8737 33.6762 24.104 33.6879 24.355C33.6879 24.355 33.7119 26.1944 32.7799 26.7064C32.7799 26.7064 33.1895 26.6261 33.6565 26.5737C32.5535 26.9211 31.7535 27.9517 31.7532 29.1691C31.7532 30.6724 32.9719 30.4068 34.4752 30.4068H35.8766H37.2782C38.7816 30.4068 39.9999 30.6724 39.9999 29.1691C40.0003 27.9517 39.2003 26.9211 38.0972 26.5737ZM36.5066 27.2874L35.8769 28.3104L35.2475 27.2874C34.6919 27.1611 34.2885 26.8741 34.2315 26.5311C34.5892 26.5227 34.8939 26.5584 34.9749 26.6917L34.7325 26.1884C35.0605 26.5057 35.4535 26.6917 35.8766 26.6917C36.2999 26.6917 36.6926 26.5057 37.0206 26.1884L36.7786 26.6917C36.8596 26.5584 37.1646 26.5224 37.5216 26.5311C37.4652 26.8741 37.0626 27.1611 36.5066 27.2874Z" fill="#A1A1AA"/>
<path d="M33.6697 23.3443H33.717H34.0557H34.3597H37.395H37.699H38.0377H38.085C38.257 23.3443 38.3967 23.2049 38.3967 23.0329C38.3967 22.8606 38.257 22.7212 38.085 22.7212H38C38 21.8939 37.5264 21.1776 36.836 20.8272L36.7734 21.1796L36.6597 21.8249C36.6457 21.9039 36.5773 21.9596 36.4997 21.9596C36.4907 21.9596 36.481 21.9586 36.4713 21.9569C36.4673 21.9566 36.4637 21.9546 36.4597 21.9539C36.3783 21.9329 36.3247 21.8532 36.3397 21.7686L36.3417 21.7572L36.4647 21.0596L36.5407 20.6292C36.465 20.5082 36.3317 20.4282 36.1787 20.4282H35.576C35.4237 20.4282 35.2903 20.5082 35.2147 20.6292L35.2907 21.0596L35.4137 21.7572L35.4157 21.7686C35.4303 21.8532 35.377 21.9332 35.2953 21.9539C35.2913 21.9546 35.288 21.9566 35.2837 21.9569C35.2743 21.9586 35.2647 21.9596 35.2553 21.9596C35.178 21.9596 35.1093 21.9039 35.0953 21.8249L34.9817 21.1796L34.9193 20.8276C34.2287 21.1776 33.755 21.8939 33.755 22.7212H33.6703C33.498 22.7212 33.3586 22.8606 33.3586 23.0329C33.358 23.2046 33.4973 23.3443 33.6697 23.3443Z" fill="#A1A1AA"/>
</svg>
