<svg width="50" height="50" viewBox="0 0 50 50" fill="none" xmlns="http://www.w3.org/2000/svg">
<circle opacity="0.75" cx="25" cy="25" r="25" fill="#E4E4E7"/>
<path fill-rule="evenodd" clip-rule="evenodd" d="M34.0167 30.725H27.4374C27.721 32.293 28.6637 33.3717 29.5349 34.05H30.6806C30.9442 34.05 31.1572 34.2623 31.1572 34.525C31.1572 34.7877 30.9442 35 30.6806 35H19.2425C18.9789 35 18.7659 34.7877 18.7659 34.525C18.7659 34.2623 18.9789 34.05 19.2425 34.05H20.3877C21.2584 33.3717 22.2021 32.293 22.4852 30.725H15.9064C14.8536 30.725 14 29.8743 14 28.825V17.9C14 16.8507 14.8536 16 15.9064 16H34.0167C35.0695 16 35.9231 16.8507 35.9231 17.9V28.825C35.9231 29.8743 35.0695 30.725 34.0167 30.725ZM21.8146 34.05H28.108C27.3478 33.251 26.6711 32.1614 26.4595 30.725H23.4631C23.2515 32.1614 22.5748 33.251 21.8146 34.05ZM34.9699 17.9C34.9699 17.3756 34.5429 16.95 34.0167 16.95H15.9064C15.3802 16.95 14.9532 17.3756 14.9532 17.9V26.925H34.9699V17.9ZM34.9699 27.875H14.9532V28.825C14.9532 29.3494 15.3802 29.775 15.9064 29.775H22.5786H27.3445H34.0167C34.5429 29.775 34.9699 29.3494 34.9699 28.825V27.875ZM24.9615 29.3C24.698 29.3 24.485 29.0877 24.485 28.825C24.485 28.5623 24.698 28.35 24.9615 28.35C25.2251 28.35 25.4381 28.5623 25.4381 28.825C25.4381 29.0877 25.2251 29.3 24.9615 29.3Z" fill="#A1A1AA"/>
<path d="M22.4185 26.2304H20.7439C20.6515 26.2304 20.5764 26.1553 20.5764 26.0629V25.393C20.5764 25.3006 20.6515 25.2256 20.7439 25.2256H22.4185C22.511 25.2256 22.586 25.3006 22.586 25.393V26.0629C22.586 26.1553 22.511 26.2304 22.4185 26.2304ZM20.9114 25.8954H22.2511V25.5605H20.9114V25.8954Z" fill="#A1A1AA"/>
<path d="M28.4481 26.2304H25.4338C25.3414 26.2304 25.2664 26.1553 25.2664 26.0629V25.393C25.2664 25.3006 25.3414 25.2256 25.4338 25.2256H28.4481C28.5406 25.2256 28.6156 25.3006 28.6156 25.393V26.0629C28.6156 26.1553 28.5406 26.2304 28.4481 26.2304ZM25.6013 25.8954H28.2807V25.5605H25.6013V25.8954Z" fill="#A1A1AA"/>
<path d="M22.4191 26.231C22.3267 26.231 22.2517 26.156 22.2517 26.0635V22.3794C22.2517 22.2869 22.3267 22.2119 22.4191 22.2119C22.5116 22.2119 22.5866 22.2869 22.5866 22.3794V26.0635C22.5866 26.156 22.5116 26.231 22.4191 26.231Z" fill="#A1A1AA"/>
<path d="M22.7541 22.5653C22.748 22.5653 22.7417 22.5649 22.7356 22.5643C22.6315 22.5529 22.526 22.5468 22.4191 22.5468C22.3267 22.5468 22.2517 22.4718 22.2517 22.3794C22.2517 22.2869 22.3267 22.2119 22.4191 22.2119C22.5384 22.2119 22.6563 22.2186 22.7721 22.2313C22.8639 22.2414 22.9306 22.3241 22.9202 22.4162C22.9108 22.5016 22.8381 22.5653 22.7541 22.5653Z" fill="#A1A1AA"/>
<path d="M25.296 24.6578C25.2246 24.6578 25.1586 24.6119 25.1362 24.5402C25.0816 24.3664 25.0099 24.1973 24.9225 24.0365C24.8783 23.9551 24.9085 23.8536 24.9898 23.8094C25.0709 23.7655 25.1727 23.7953 25.2169 23.8767C25.3147 24.0563 25.3948 24.2462 25.4557 24.4404C25.4835 24.5288 25.4343 24.6226 25.3459 24.6501C25.3295 24.6554 25.3127 24.6578 25.296 24.6578ZM24.746 23.644C24.6975 23.644 24.6496 23.6232 24.6167 23.583C24.5009 23.4427 24.3706 23.3121 24.2292 23.1958C24.1579 23.1369 24.1479 23.0314 24.2068 22.9601C24.2651 22.889 24.3712 22.8783 24.4426 22.9376C24.6003 23.0676 24.7457 23.2133 24.8753 23.3703C24.9343 23.4417 24.9242 23.5472 24.8525 23.6061C24.821 23.6316 24.7835 23.644 24.746 23.644ZM23.8551 22.9098C23.828 22.9098 23.8009 22.9031 23.7754 22.8894C23.6147 22.8023 23.4452 22.7303 23.2714 22.676C23.1829 22.6482 23.134 22.5545 23.1615 22.4664C23.189 22.378 23.2824 22.3284 23.3712 22.3565C23.5654 22.4175 23.755 22.4975 23.9348 22.595C24.0162 22.6392 24.0464 22.7407 24.0022 22.8221C23.9724 22.878 23.9144 22.9098 23.8551 22.9098Z" fill="#A1A1AA"/>
<path d="M25.4333 25.5617C25.3409 25.5617 25.2658 25.4867 25.2658 25.3943C25.2658 25.2874 25.2598 25.1819 25.2484 25.0781C25.2384 24.9863 25.3047 24.9036 25.3964 24.8932C25.4896 24.8825 25.5709 24.9495 25.5813 25.0413C25.5941 25.1571 25.6008 25.275 25.6008 25.3943C25.6008 25.4867 25.5257 25.5617 25.4333 25.5617Z" fill="#A1A1AA"/>
<path d="M21.7485 26.2304C21.6561 26.2304 21.5811 26.1553 21.5811 26.0629V25.393C21.5811 25.3006 21.6561 25.2256 21.7485 25.2256C21.841 25.2256 21.916 25.3006 21.916 25.393V26.0629C21.916 26.1553 21.841 26.2304 21.7485 26.2304Z" fill="#A1A1AA"/>
<path d="M26.1018 26.2304C26.0093 26.2304 25.9343 26.1553 25.9343 26.0629V25.393C25.9343 25.3006 26.0093 25.2256 26.1018 25.2256C26.1942 25.2256 26.2692 25.3006 26.2692 25.393V26.0629C26.2692 26.1553 26.1942 26.2304 26.1018 26.2304Z" fill="#A1A1AA"/>
<path d="M27.1066 20.8714H26.4367C26.1597 20.8714 25.9343 20.646 25.9343 20.369V19.6992C25.9343 19.4222 26.1597 19.1968 26.4367 19.1968H27.1066C27.3835 19.1968 27.6089 19.4222 27.6089 19.6992V20.369C27.6089 20.646 27.3835 20.8714 27.1066 20.8714ZM26.4367 19.5317C26.3443 19.5317 26.2692 19.6067 26.2692 19.6992V20.369C26.2692 20.4614 26.3443 20.5365 26.4367 20.5365H27.1066C27.199 20.5365 27.274 20.4614 27.274 20.369V19.6992C27.274 19.6067 27.199 19.5317 27.1066 19.5317H26.4367Z" fill="#A1A1AA"/>
<path d="M26.7733 25.5609C26.6809 25.5609 26.6058 25.4859 26.6058 25.3935V20.7046C26.6058 20.6121 26.6809 20.5371 26.7733 20.5371C26.8657 20.5371 26.9408 20.6121 26.9408 20.7046V25.3935C26.9408 25.4859 26.8657 25.5609 26.7733 25.5609Z" fill="#A1A1AA"/>
<path d="M26.1027 20.2016H20.7439C20.6515 20.2016 20.5764 20.1266 20.5764 20.0342C20.5764 19.9417 20.6515 19.8667 20.7439 19.8667H26.1027C26.1951 19.8667 26.2701 19.9417 26.2701 20.0342C26.2701 20.1266 26.1951 20.2016 26.1027 20.2016Z" fill="#A1A1AA"/>
<path d="M26.7733 19.5321C26.6809 19.5321 26.6058 19.457 26.6058 19.3646V18.3598C26.6058 18.2674 26.6809 18.1924 26.7733 18.1924C26.8657 18.1924 26.9408 18.2674 26.9408 18.3598V19.3646C26.9408 19.457 26.8657 19.5321 26.7733 19.5321Z" fill="#A1A1AA"/>
<path d="M28.4478 20.2016H27.443C27.3506 20.2016 27.2756 20.1266 27.2756 20.0342C27.2756 19.9417 27.3506 19.8667 27.443 19.8667H28.4478C28.5402 19.8667 28.6153 19.9417 28.6153 20.0342C28.6153 20.1266 28.5402 20.2016 28.4478 20.2016Z" fill="#A1A1AA"/>
</svg>
