<svg width="30" height="26" viewBox="0 0 30 26" fill="none" xmlns="http://www.w3.org/2000/svg">
<path fill-rule="evenodd" clip-rule="evenodd" d="M27.3913 20.15H18.388C18.7761 22.2956 20.0661 23.7718 21.2583 24.7H22.8261C23.1867 24.7 23.4783 24.9905 23.4783 25.35C23.4783 25.7094 23.1867 26 22.8261 26H7.17391C6.81326 26 6.52174 25.7094 6.52174 25.35C6.52174 24.9905 6.81326 24.7 7.17391 24.7H8.74109C9.93261 23.7718 11.2239 22.2956 11.6113 20.15H2.6087C1.16804 20.15 0 18.9858 0 17.55V2.6C0 1.16415 1.16804 0 2.6087 0H27.3913C28.832 0 30 1.16415 30 2.6V17.55C30 18.9858 28.832 20.15 27.3913 20.15ZM10.6937 24.7H19.3057C18.2654 23.6067 17.3393 22.1156 17.0498 20.15H12.9496C12.66 22.1156 11.7339 23.6067 10.6937 24.7ZM28.6957 2.6C28.6957 1.8824 28.1113 1.3 27.3913 1.3H2.6087C1.8887 1.3 1.30435 1.8824 1.30435 2.6V14.95H28.6957V2.6ZM28.6957 16.25H1.30435V17.55C1.30435 18.2676 1.8887 18.85 2.6087 18.85H11.7391H18.2609H27.3913C28.1113 18.85 28.6957 18.2676 28.6957 17.55V16.25ZM15 18.2C14.6393 18.2 14.3478 17.9094 14.3478 17.55C14.3478 17.1905 14.6393 16.9 15 16.9C15.3607 16.9 15.6522 17.1905 15.6522 17.55C15.6522 17.9094 15.3607 18.2 15 18.2Z" fill="#A1A1AA"/>
<path d="M19.7468 3H18.256C18.1153 3 18.0028 3.1084 18.0028 3.2439V3.74526H11.9831V3.2439C11.9831 3.1084 11.8706 3 11.73 3H10.2532C10.1125 3 10 3.1084 10 3.2439V4.72087C10 4.85637 10.1125 4.96477 10.2532 4.96477H11.744C11.8847 4.96477 11.9972 4.85637 11.9972 4.72087V4.21951H14.7679C14.7398 4.81572 13.2349 7.6206 12.2785 9.27371C12.2222 9.36856 12.2504 9.49052 12.3347 9.57182C13.1927 10.2764 13.4037 10.9675 13.4599 11.3198H13.1364C12.9958 11.3198 12.8833 11.4282 12.8833 11.5637V12.7561C12.8833 12.8916 12.9958 13 13.1364 13H16.8776C17.0183 13 17.1308 12.8916 17.1308 12.7561V11.5637C17.1308 11.4282 17.0183 11.3198 16.8776 11.3198H16.5541C16.6104 10.9675 16.8214 10.2764 17.6793 9.57182C17.7637 9.50407 17.7918 9.36856 17.7356 9.27371C16.7792 7.6206 15.2743 4.80217 15.2461 4.21951H18.0028V4.72087C18.0028 4.85637 18.1153 4.96477 18.256 4.96477H19.7468C19.8875 4.96477 20 4.85637 20 4.72087V3.2439C20 3.1084 19.8875 3 19.7468 3ZM11.4909 4.47696H10.4923V3.47425H11.4909V4.47696ZM15.007 8.44715C15.1899 8.44715 15.3305 8.58266 15.3305 8.75881C15.3305 8.93496 15.1899 9.07046 15.007 9.07046C14.8242 9.07046 14.6835 8.93496 14.6835 8.75881C14.6835 8.59621 14.8383 8.44715 15.007 8.44715ZM16.6385 12.4986H13.3896V11.7805H13.7271H16.301H16.6385V12.4986ZM16.0619 11.3062H13.9522C13.8959 10.9133 13.685 10.1274 12.7989 9.32791C13.1364 8.73171 14.1491 6.94309 14.7539 5.61518V8.01355C14.4304 8.1084 14.1913 8.4065 14.1913 8.75881C14.1913 9.19241 14.557 9.54472 15.007 9.54472C15.4571 9.54472 15.8228 9.19241 15.8228 8.75881C15.8228 8.4065 15.5837 8.12195 15.2602 8.01355V5.60163C15.879 6.92954 16.8776 8.71816 17.2152 9.32791C16.3291 10.1274 16.1181 10.9133 16.0619 11.3062ZM19.5077 4.47696H18.5091V4.02981C18.5091 4.01626 18.5091 4.00271 18.5091 3.98916C18.5091 3.97561 18.5091 3.96206 18.5091 3.94851V3.4878H19.5077V4.47696Z" fill="#A1A1AA"/>
</svg>
