<svg width="30" height="26" viewBox="0 0 30 26" fill="none" xmlns="http://www.w3.org/2000/svg">
<path fill-rule="evenodd" clip-rule="evenodd" d="M27.3913 20.15H18.388C18.7761 22.2956 20.0661 23.7718 21.2583 24.7H22.8261C23.1867 24.7 23.4783 24.9905 23.4783 25.35C23.4783 25.7094 23.1867 26 22.8261 26H7.17391C6.81326 26 6.52174 25.7094 6.52174 25.35C6.52174 24.9905 6.81326 24.7 7.17391 24.7H8.74109C9.93261 23.7718 11.2239 22.2956 11.6113 20.15H2.6087C1.16804 20.15 0 18.9858 0 17.55V2.6C0 1.16415 1.16804 0 2.6087 0H27.3913C28.832 0 30 1.16415 30 2.6V17.55C30 18.9858 28.832 20.15 27.3913 20.15ZM10.6937 24.7H19.3057C18.2654 23.6067 17.3393 22.1156 17.0498 20.15H12.9496C12.66 22.1156 11.7339 23.6067 10.6937 24.7ZM28.6957 2.6C28.6957 1.8824 28.1113 1.3 27.3913 1.3H2.6087C1.8887 1.3 1.30435 1.8824 1.30435 2.6V14.95H28.6957V2.6ZM28.6957 16.25H1.30435V17.55C1.30435 18.2676 1.8887 18.85 2.6087 18.85H11.7391H18.2609H27.3913C28.1113 18.85 28.6957 18.2676 28.6957 17.55V16.25ZM15 18.2C14.6393 18.2 14.3478 17.9094 14.3478 17.55C14.3478 17.1905 14.6393 16.9 15 16.9C15.3607 16.9 15.6522 17.1905 15.6522 17.55C15.6522 17.9094 15.3607 18.2 15 18.2Z" fill="#A1A1AA"/>
<path d="M11.7324 10.5507L9.11543 8.36276L11.7324 6.18909C11.9183 6.03179 11.9469 5.76008 11.7896 5.57418C11.7038 5.47407 11.5751 5.41687 11.4464 5.41687C11.3463 5.41687 11.2462 5.44547 11.1604 5.51697L8.1573 8.03385C8.0572 8.11965 8 8.23406 8 8.37706C8 8.52007 8.0572 8.63447 8.1573 8.72027L11.1747 11.2372C11.2605 11.3087 11.3463 11.3373 11.4607 11.3373C11.5894 11.3373 11.7181 11.2801 11.8039 11.1799C11.9469 10.9797 11.9183 10.708 11.7324 10.5507Z" fill="#A1A1AA"/>
<path d="M21.9996 8.53429C21.9996 8.40558 21.9424 8.27688 21.8423 8.19108L18.8106 5.6742C18.7248 5.6027 18.6247 5.5741 18.5246 5.5741C18.3959 5.5741 18.2672 5.6313 18.1814 5.7314C18.0241 5.91731 18.0527 6.18902 18.2386 6.34632L20.8556 8.53429L18.2529 10.7223C18.067 10.8796 18.0384 11.1513 18.1957 11.3372C18.2815 11.4373 18.3959 11.4945 18.5389 11.4945C18.639 11.4945 18.7391 11.4516 18.8249 11.3944L21.8423 8.8775C21.9424 8.7917 21.9996 8.66299 21.9996 8.53429Z" fill="#A1A1AA"/>
<path d="M16.5229 3.0143C16.48 3 16.4371 3 16.3942 3C16.2083 3 16.0367 3.1144 15.9795 3.31461L12.7905 13.5251C12.719 13.7539 12.8477 13.997 13.0765 14.0685C13.1194 14.0828 13.1623 14.0828 13.2052 14.0828C13.4055 14.0828 13.5628 13.9541 13.62 13.7682L16.7947 3.54342C16.8805 3.32891 16.7518 3.0858 16.5229 3.0143Z" fill="#A1A1AA"/>
</svg>
