<svg width="40" height="40" viewBox="0 0 40 40" fill="#A1A1AA" xmlns="http://www.w3.org/2000/svg">
<path d="M21.8804 4.07987C21.8804 3.55987 21.4804 3.15987 21.0004 3.11987C21.0004 3.11987 20.8804 3.11987 20.7604 3.11987C20.1204 3.11987 18.4004 3.19987 16.4004 3.79987C15.4004 4.07987 14.3204 4.51987 13.3204 5.15987C12.2804 5.79987 11.3204 6.63987 10.5204 7.75987C10.4004 7.91987 10.3604 8.11987 10.3604 8.27987C10.3604 8.55987 10.4804 8.83987 10.7204 8.99987C10.8804 9.11987 11.0804 9.15987 11.2404 9.15987C11.5204 9.15987 11.8004 9.03987 11.9604 8.79987C12.6004 7.91987 13.4004 7.23987 14.2404 6.67987C15.5204 5.87987 16.9604 5.43987 18.1604 5.19987C19.3604 4.95987 20.3604 4.91987 20.7604 4.91987C20.8404 4.91987 20.8804 4.91987 20.9204 4.91987H20.9604H21.0004C21.4804 4.95987 21.8804 4.55987 21.8804 4.07987Z" fill="#A1A1AA"/>
<path d="M8.67979 6.99982C8.83979 7.11982 9.03979 7.19982 9.23979 7.19982C9.51979 7.19982 9.79978 7.07982 9.95978 6.83982C11.5998 4.63982 13.8398 3.47982 15.9198 2.83982C17.9598 2.19982 19.8398 2.11982 20.5998 2.11982C20.7198 2.11982 20.7998 2.11982 20.8798 2.11982H20.9598H20.9998C21.4798 2.11982 21.8798 1.75982 21.9198 1.27982V1.23982C21.9198 0.759824 21.5598 0.359824 21.0798 0.319824C21.0798 0.319824 20.9198 0.319824 20.5998 0.319824C19.7198 0.319824 17.6798 0.399824 15.3598 1.11982C13.0398 1.83982 10.4398 3.19982 8.47979 5.75982C8.35979 5.91982 8.27979 6.11982 8.27979 6.31982C8.31979 6.51982 8.43979 6.79982 8.67979 6.99982Z" fill="#A1A1AA"/>
<path d="M35.0402 19.6397C35.0402 18.9597 35.0002 18.5197 34.9602 18.4797C34.8802 18.0397 34.5202 17.7197 34.0802 17.7197C34.0402 17.7197 34.0002 17.7197 33.9602 17.7197C33.5202 17.7997 33.2002 18.1597 33.2002 18.5997C33.2002 18.6397 33.2002 18.6397 33.2002 18.6797V18.7197C33.2002 18.7197 33.2002 18.7197 33.2002 18.7597C33.2002 18.7597 33.2402 19.0797 33.2402 19.6397C33.2402 20.4797 33.1202 21.7997 32.6402 23.3197C32.1202 24.8397 31.2402 26.5597 29.6402 28.1597C29.4802 28.3197 29.3602 28.5597 29.3602 28.7997C29.3602 29.0397 29.4402 29.2797 29.6402 29.4397C29.8002 29.5997 30.0402 29.7197 30.2802 29.7197C30.5202 29.7197 30.7602 29.6397 30.9202 29.4397C32.7602 27.5997 33.8002 25.6397 34.3602 23.8797C34.9202 22.1597 35.0402 20.6397 35.0402 19.6397Z" fill="#A1A1AA"/>
<path d="M29.6002 22.8801C29.6002 22.1201 29.3202 21.3601 28.7602 20.8001L28.5602 20.6001C28.2802 20.3201 27.9602 20.1201 27.6002 19.9601L28.0402 19.5201C28.6802 18.8801 29.0002 18.0401 29.0402 17.2001C29.0402 17.2001 29.0402 17.2001 29.0402 17.1601C29.0402 16.3201 28.7202 15.4401 28.0402 14.8001C27.7602 14.5201 27.4402 14.3201 27.0802 14.1601C27.5202 13.6401 27.7602 12.9601 27.7602 12.3201V12.2801V12.2401C27.7602 11.5201 27.4802 10.7601 26.9202 10.2001L26.4002 9.68014C25.8402 9.12014 25.0802 8.84014 24.3202 8.84014C23.6802 8.84014 23.0802 9.04014 22.5602 9.44014C22.4002 9.08014 22.2002 8.76014 21.9202 8.48014C21.3602 7.92014 20.6002 7.64014 19.8402 7.64014C19.0802 7.64014 18.3202 7.92014 17.7602 8.48014L10.6402 15.5601C10.8002 15.0401 10.9202 14.5601 10.9202 14.0401C10.9202 13.3601 10.7202 12.6801 10.3202 12.0801C9.92021 11.4801 9.32021 11.0401 8.60021 10.7201H8.56021L8.48021 10.6801C8.32021 10.6401 8.16021 10.6001 7.96021 10.6001C7.40021 10.6001 6.84021 10.9201 6.56021 11.4401C6.48021 11.5601 5.40021 13.4801 4.16021 15.8801C3.52021 17.1201 2.84021 18.4801 2.24021 19.8001C1.64021 21.1201 1.12021 22.3601 0.800207 23.4401C0.760208 23.5201 0.400208 24.6801 0.400208 26.4001C0.400208 27.4801 0.560208 28.8401 1.08021 30.2401C1.60021 31.6401 2.44021 33.1601 3.84021 34.5201C5.04021 35.7201 6.40021 36.5601 7.76021 37.0801C9.12021 37.6001 10.4802 37.8001 11.7602 37.8001C13.1202 37.8001 14.4002 37.5601 15.4402 37.2001C16.4802 36.8401 17.3602 36.3601 17.9202 35.8001L28.7202 25.0001C29.2802 24.3601 29.5602 23.6401 29.6002 22.8801ZM8.36021 35.3201C7.24021 34.8801 6.12021 34.2401 5.08021 33.2001C3.88021 32.0001 3.16021 30.7601 2.72021 29.5601C2.28021 28.4001 2.16021 27.2801 2.16021 26.3201C2.16021 25.6001 2.24021 24.9601 2.32021 24.5601C2.36021 24.3601 2.40021 24.2001 2.44021 24.0801C2.44021 24.0401 2.48021 24.0001 2.48021 23.9601V23.9201C2.76021 23.0001 3.24021 21.8001 3.84021 20.5201C4.72021 18.6001 5.76021 16.5601 6.60021 14.9601C7.04021 14.1601 7.40021 13.5201 7.64021 13.0401C7.76021 12.8001 7.88021 12.6401 7.96021 12.4801C7.96021 12.4401 8.00021 12.4401 8.00021 12.4001C8.36021 12.6001 8.60021 12.8001 8.76021 13.0401C8.96021 13.3201 9.04021 13.6001 9.04021 13.9601C9.04021 14.4001 8.92021 14.9201 8.60021 15.5201L6.68021 19.4001C6.60021 19.5201 6.60021 19.6801 6.60021 19.8001C6.60021 20.0801 6.72021 20.3601 7.00021 20.5601C7.16021 20.6801 7.36021 20.7201 7.52021 20.7201C7.76021 20.7201 8.00021 20.6401 8.16021 20.4401L18.9602 9.64014C19.2002 9.44014 19.4402 9.32014 19.7602 9.32014C20.0402 9.32014 20.3202 9.44014 20.5602 9.64014C20.7602 9.84014 20.8802 10.1201 20.8802 10.4401C20.8802 10.7201 20.7602 11.0001 20.5602 11.2401L12.5202 19.3601C12.3602 19.5201 12.2402 19.7601 12.2402 20.0001C12.2402 20.2401 12.3202 20.4801 12.5202 20.6401C12.6802 20.8001 12.9202 20.9201 13.1602 20.9201C13.4002 20.9201 13.6402 20.8401 13.8002 20.6401L21.8802 12.5601L23.5202 10.9201C23.7602 10.7201 24.0002 10.6001 24.3202 10.6001C24.6002 10.6001 24.8802 10.7201 25.1202 10.9201L25.6402 11.4401C25.8402 11.6801 25.9602 11.9201 25.9602 12.2401C25.9602 12.5201 25.8402 12.8001 25.6402 13.0401L23.9202 14.7601L20.4002 18.2401L15.9202 22.7201C15.7602 22.8801 15.6402 23.1201 15.6402 23.3601C15.6402 23.6001 15.7202 23.8401 15.9202 24.0001C16.0802 24.1601 16.3202 24.2801 16.5602 24.2801C16.8002 24.2801 17.0402 24.2001 17.2002 24.0001L17.6402 23.5601L25.1602 16.0401C25.4002 15.8401 25.6402 15.7201 25.9602 15.7201C26.2402 15.7201 26.5202 15.8401 26.7602 16.0401C27.0802 16.3601 27.2002 16.7201 27.2002 17.1201C27.2002 17.5201 27.0402 17.9201 26.7602 18.2001L24.4002 20.6001L18.5602 26.4001L17.9202 27.0401C17.7602 27.2001 17.6402 27.4401 17.6402 27.6801C17.6402 27.9201 17.7202 28.1601 17.9202 28.3201C18.0802 28.4801 18.3202 28.6001 18.5602 28.6001C18.8002 28.6001 19.0402 28.5201 19.2002 28.3201L19.6002 27.9201L24.4002 23.1201L25.6402 21.8801C25.8802 21.6801 26.1202 21.5601 26.4402 21.5601C26.7202 21.5601 27.0002 21.6801 27.2402 21.8801L27.4402 22.0801C27.6402 22.3201 27.7602 22.5601 27.7602 22.8801C27.7602 23.1601 27.6402 23.4401 27.4402 23.6801L16.6402 34.4801C16.5202 34.6001 16.2802 34.8001 15.9602 34.9601C15.6402 35.1201 15.2802 35.3201 14.8402 35.4401C13.9602 35.7201 12.8802 35.9201 11.7202 35.9201C10.6402 35.9201 9.48021 35.7601 8.36021 35.3201Z" fill="#A1A1AA"/>
<path d="M38.0003 18.1995C37.9203 17.7595 37.5603 17.4395 37.1203 17.4395C37.0803 17.4395 37.0403 17.4395 37.0003 17.4395C36.5603 17.5195 36.2403 17.8795 36.2403 18.3195C36.2403 18.3195 36.2403 18.3595 36.2403 18.3995V18.4795C36.2403 18.4795 36.2803 18.7995 36.2803 19.3595C36.2803 20.2795 36.1603 21.8395 35.4803 23.7195C34.8003 25.5995 33.5603 27.7595 31.4003 29.9595C31.2403 30.1195 31.1203 30.3595 31.1203 30.5995C31.1203 30.8395 31.2003 31.0795 31.4003 31.2395C31.5603 31.3995 31.8003 31.5195 32.0403 31.5195C32.2803 31.5195 32.5203 31.4395 32.6803 31.2395C35.0403 28.8795 36.4003 26.4395 37.1603 24.3195C37.9203 22.1995 38.0403 20.4395 38.0403 19.3595C38.0403 18.6795 38.0003 18.2795 38.0003 18.1995Z" fill="#A1A1AA"/>
</svg>
