<svg width="18" height="25" viewBox="0 0 18 25" fill="none" xmlns="http://www.w3.org/2000/svg">
<path d="M7.4617 2.91658C7.44364 2.91964 7.42559 2.9213 7.40753 2.9213C7.25948 2.9213 7.12809 2.81547 7.10171 2.66464L6.76616 0.7622C5.44898 1.42996 4.54539 2.79631 4.54539 4.37459H4.38345C4.05541 4.37459 3.78958 4.64042 3.78958 4.96846C3.78958 5.29651 4.05541 5.56261 4.38345 5.56261H12.8054C13.1338 5.56261 13.3999 5.29651 13.3999 4.96846C13.3999 4.64042 13.1338 4.37459 12.8054 4.37459H12.6438C12.6438 2.79603 11.7399 1.42996 10.423 0.761922L10.0872 2.66464C10.0611 2.8152 9.92996 2.9213 9.78163 2.9213C9.76385 2.9213 9.74552 2.91991 9.72746 2.91658C9.55858 2.8863 9.44608 2.72548 9.47608 2.55659L9.85912 0.383322C9.71552 0.153329 9.4608 0 9.16887 0H8.01973C7.72863 0 7.4742 0.153329 7.33031 0.383322L7.71335 2.55659C7.74308 2.72575 7.63058 2.8863 7.4617 2.91658Z" fill="#A1A1AA"/>
<path d="M15.1791 24.4502H2.01144C1.86005 24.4502 1.737 24.573 1.737 24.7246C1.737 24.876 1.85977 24.9988 2.01144 24.9988H15.1791C15.3305 24.9988 15.4533 24.876 15.4533 24.7246C15.4533 24.5732 15.3305 24.4502 15.1791 24.4502Z" fill="#A1A1AA"/>
<path d="M16.1362 14.5721C15.8106 13.4732 15.3857 12.7713 14.9626 12.3202C14.2587 11.5699 13.5627 11.5108 13.3488 11.4619C13.3091 11.4524 13.2699 11.4438 13.2279 11.436C13.0977 11.316 12.9955 11.1474 12.9149 10.9466C12.7143 10.4416 12.6544 9.72469 12.6613 9.01249C12.6732 7.73031 12.898 6.45951 12.898 6.45951C12.898 6.4034 12.8952 6.35257 12.8946 6.29785C12.8652 6.2998 12.8355 6.30257 12.8057 6.30257H11.9869C12.048 6.40563 12.0796 6.57673 12.0738 6.7795C12.0713 6.86839 12.0619 6.96339 12.0444 7.06116C11.991 7.35782 11.8788 7.60559 11.7572 7.72809C11.6972 7.78864 11.633 7.81864 11.5741 7.80808C11.5447 7.80281 11.5188 7.78836 11.4947 7.7667C11.2055 8.66695 10.653 9.5647 9.95554 10.1064C9.54472 10.4252 9.08307 10.6208 8.59558 10.6208C8.1081 10.6208 7.64644 10.4252 7.23562 10.1064C6.53814 9.56442 5.98566 8.66695 5.6965 7.7667C5.67233 7.78836 5.64678 7.80281 5.61706 7.80808C5.55845 7.81864 5.49401 7.78864 5.43401 7.72809C5.31207 7.60559 5.20012 7.35782 5.14679 7.06116C5.12929 6.96311 5.11957 6.86839 5.11707 6.7795C5.11152 6.57673 5.14346 6.40563 5.20429 6.30257H4.38459C4.35487 6.30257 4.32571 6.2998 4.29626 6.29785C4.29571 6.35257 4.29293 6.4034 4.29293 6.45951C4.29293 6.45951 4.51737 7.73031 4.52931 9.01249C4.53598 9.72469 4.47626 10.4416 4.27571 10.9466C4.19516 11.1477 4.09266 11.3163 3.96266 11.436C3.921 11.4438 3.88155 11.4524 3.84211 11.4619C3.62823 11.511 2.93214 11.5699 2.22827 12.3202C1.8055 12.7713 1.38024 13.4732 1.05469 14.5721C0.452765 14.7007 0 15.2365 0 15.8759V15.907L0.00555552 15.9378L1.2108 22.9293C1.22885 23.6493 1.82022 24.2298 2.54437 24.2298H14.6471C15.3712 24.2298 15.9626 23.6493 15.9806 22.9293L17.1859 15.9378L17.1914 15.907V15.8759C17.1909 15.2365 16.7381 14.7007 16.1362 14.5721ZM5.76789 11.2327C5.78622 11.226 5.82927 11.211 5.88594 11.1849C5.90899 11.1752 5.93483 11.1622 5.96094 11.148C6.18815 11.0294 6.52148 10.7808 6.52148 10.3438C6.52148 10.3438 6.52148 10.3438 6.52175 10.3438C6.87952 10.698 7.2784 10.9797 7.70366 11.148C7.98949 11.2619 8.28809 11.3244 8.59447 11.3244C8.59475 11.3244 8.59503 11.3244 8.59558 11.3244C8.59614 11.3244 8.59614 11.3244 8.59669 11.3244C8.90335 11.3244 9.20167 11.2619 9.4875 11.148C9.91277 10.9797 10.3116 10.698 10.6694 10.3438C10.6697 10.3438 10.6697 10.3438 10.6697 10.3438C10.6697 10.7808 11.003 11.0294 11.2302 11.148C11.2563 11.1624 11.2822 11.1755 11.3052 11.1849C11.3619 11.211 11.4047 11.226 11.4233 11.2327C11.4233 11.2327 11.4233 11.2327 11.4233 11.233C11.4099 11.3452 11.3599 11.4527 11.2811 11.5552C10.9055 12.0349 9.85249 12.7263 8.61169 12.7263C8.60641 12.7263 8.60114 12.7257 8.59586 12.7257C8.59058 12.7257 8.5853 12.7263 8.58003 12.7263C7.33923 12.7263 6.2862 12.0349 5.91094 11.5552C5.83177 11.4527 5.78205 11.3452 5.76844 11.233C5.76789 11.2327 5.76789 11.2327 5.76789 11.2327ZM15.6148 22.8957C15.6148 23.4307 15.1809 23.864 14.6468 23.864H2.54409C2.00939 23.864 1.57579 23.4304 1.57579 22.8957L0.365545 15.8762C0.365545 15.3418 0.799143 14.9079 1.33385 14.9079H15.857C16.3917 14.9079 16.8251 15.342 16.8251 15.8762L15.6148 22.8957Z" fill="#A1A1AA"/>
<path d="M8.59487 18.8125C8.27766 18.8125 8.02045 19.0689 8.02045 19.3855C8.02045 19.7036 8.27794 19.96 8.59487 19.96C8.91181 19.96 9.16875 19.7033 9.16875 19.3855C9.16875 19.0686 8.91209 18.8125 8.59487 18.8125Z" fill="#A1A1AA"/>
</svg>
