<svg width="50" height="50" viewBox="0 0 50 50" fill="none" xmlns="http://www.w3.org/2000/svg">
<circle opacity="0.75" cx="25" cy="25" r="25" fill="#E4E4E7"/>
<path d="M23.4617 15.9166C23.4436 15.9196 23.4256 15.9213 23.4075 15.9213C23.2595 15.9213 23.1281 15.8155 23.1017 15.6646L22.7662 13.7622C21.449 14.43 20.5454 15.7963 20.5454 17.3746H20.3835C20.0554 17.3746 19.7896 17.6404 19.7896 17.9685C19.7896 18.2965 20.0554 18.5626 20.3835 18.5626H28.8054C29.1338 18.5626 29.3999 18.2965 29.3999 17.9685C29.3999 17.6404 29.1338 17.3746 28.8054 17.3746H28.6438C28.6438 15.796 27.7399 14.43 26.423 13.7619L26.0872 15.6646C26.0611 15.8152 25.93 15.9213 25.7816 15.9213C25.7639 15.9213 25.7455 15.9199 25.7275 15.9166C25.5586 15.8863 25.4461 15.7255 25.4761 15.5566L25.8591 13.3833C25.7155 13.1533 25.4608 13 25.1689 13H24.0197C23.7286 13 23.4742 13.1533 23.3303 13.3833L23.7134 15.5566C23.7431 15.7258 23.6306 15.8863 23.4617 15.9166Z" fill="#A1A1AA"/>
<path d="M31.1791 37.4502H18.0114C17.8601 37.4502 17.737 37.573 17.737 37.7246C17.737 37.876 17.8598 37.9988 18.0114 37.9988H31.1791C31.3305 37.9988 31.4533 37.876 31.4533 37.7246C31.4533 37.5732 31.3305 37.4502 31.1791 37.4502Z" fill="#A1A1AA"/>
<path d="M32.1362 27.5721C31.8106 26.4732 31.3857 25.7713 30.9626 25.3202C30.2587 24.5699 29.5627 24.5108 29.3488 24.4619C29.3091 24.4524 29.2699 24.4438 29.2279 24.436C29.0977 24.316 28.9955 24.1474 28.9149 23.9466C28.7143 23.4416 28.6544 22.7247 28.6613 22.0125C28.6732 20.7303 28.898 19.4595 28.898 19.4595C28.898 19.4034 28.8952 19.3526 28.8946 19.2979C28.8652 19.2998 28.8355 19.3026 28.8057 19.3026H27.9869C28.048 19.4056 28.0796 19.5767 28.0738 19.7795C28.0713 19.8684 28.0619 19.9634 28.0444 20.0612C27.991 20.3578 27.8788 20.6056 27.7572 20.7281C27.6972 20.7886 27.633 20.8186 27.5741 20.8081C27.5447 20.8028 27.5188 20.7884 27.4947 20.7667C27.2055 21.6669 26.653 22.5647 25.9555 23.1064C25.5447 23.4252 25.0831 23.6208 24.5956 23.6208C24.1081 23.6208 23.6464 23.4252 23.2356 23.1064C22.5381 22.5644 21.9857 21.6669 21.6965 20.7667C21.6723 20.7884 21.6468 20.8028 21.6171 20.8081C21.5584 20.8186 21.494 20.7886 21.434 20.7281C21.3121 20.6056 21.2001 20.3578 21.1468 20.0612C21.1293 19.9631 21.1196 19.8684 21.1171 19.7795C21.1115 19.5767 21.1435 19.4056 21.2043 19.3026H20.3846C20.3549 19.3026 20.3257 19.2998 20.2963 19.2979C20.2957 19.3526 20.2929 19.4034 20.2929 19.4595C20.2929 19.4595 20.5174 20.7303 20.5293 22.0125C20.536 22.7247 20.4763 23.4416 20.2757 23.9466C20.1952 24.1477 20.0927 24.3163 19.9627 24.436C19.921 24.4438 19.8816 24.4524 19.8421 24.4619C19.6282 24.511 18.9321 24.5699 18.2283 25.3202C17.8055 25.7713 17.3802 26.4732 17.0547 27.5721C16.4528 27.7007 16 28.2365 16 28.8759V28.907L16.0056 28.9378L17.2108 35.9293C17.2289 36.6493 17.8202 37.2298 18.5444 37.2298H30.6471C31.3712 37.2298 31.9626 36.6493 31.9806 35.9293L33.1859 28.9378L33.1914 28.907V28.8759C33.1909 28.2365 32.7381 27.7007 32.1362 27.5721ZM21.7679 24.2327C21.7862 24.226 21.8293 24.211 21.8859 24.1849C21.909 24.1752 21.9348 24.1622 21.9609 24.148C22.1882 24.0294 22.5215 23.7808 22.5215 23.3438C22.5215 23.3438 22.5215 23.3438 22.5218 23.3438C22.8795 23.698 23.2784 23.9797 23.7037 24.148C23.9895 24.2619 24.2881 24.3244 24.5945 24.3244C24.5947 24.3244 24.595 24.3244 24.5956 24.3244C24.5961 24.3244 24.5961 24.3244 24.5967 24.3244C24.9033 24.3244 25.2017 24.2619 25.4875 24.148C25.9128 23.9797 26.3116 23.698 26.6694 23.3438C26.6697 23.3438 26.6697 23.3438 26.6697 23.3438C26.6697 23.7808 27.003 24.0294 27.2302 24.148C27.2563 24.1624 27.2822 24.1755 27.3052 24.1849C27.3619 24.211 27.4047 24.226 27.4233 24.2327C27.4233 24.2327 27.4233 24.2327 27.4233 24.233C27.4099 24.3452 27.3599 24.4527 27.2811 24.5552C26.9055 25.0349 25.8525 25.7263 24.6117 25.7263C24.6064 25.7263 24.6011 25.7257 24.5959 25.7257C24.5906 25.7257 24.5853 25.7263 24.58 25.7263C23.3392 25.7263 22.2862 25.0349 21.9109 24.5552C21.8318 24.4527 21.7821 24.3452 21.7684 24.233C21.7679 24.2327 21.7679 24.2327 21.7679 24.2327ZM31.6148 35.8957C31.6148 36.4307 31.1809 36.864 30.6468 36.864H18.5441C18.0094 36.864 17.5758 36.4304 17.5758 35.8957L16.3655 28.8762C16.3655 28.3418 16.7991 27.9079 17.3338 27.9079H31.857C32.3917 27.9079 32.8251 28.342 32.8251 28.8762L31.6148 35.8957Z" fill="#A1A1AA"/>
<path d="M24.5949 31.8125C24.2777 31.8125 24.0204 32.0689 24.0204 32.3855C24.0204 32.7036 24.2779 32.96 24.5949 32.96C24.9118 32.96 25.1687 32.7033 25.1687 32.3855C25.1687 32.0686 24.9121 31.8125 24.5949 31.8125Z" fill="#A1A1AA"/>
</svg>
